<svg width="52" height="53" viewBox="0 0 52 53" fill="none" xmlns="http://www.w3.org/2000/svg">
<mask id="mask0_12665_13402" style="mask-type:alpha" maskUnits="userSpaceOnUse" x="0" y="0" width="52" height="53">
<rect y="0.381348" width="52" height="52" fill="white"/>
</mask>
<g mask="url(#mask0_12665_13402)">
<path d="M13.0002 30.7146L17.171 19.8813H10.8335L7.96266 24.2146H4.3335L6.50016 16.6313L4.3335 9.04797H7.96266L10.8335 13.3813H17.171L13.0002 2.54797H17.3335L24.8085 13.3813H31.4168C32.3196 13.3813 33.087 13.6973 33.7189 14.3292C34.3509 14.9612 34.6668 15.7285 34.6668 16.6313C34.6668 17.5341 34.3509 18.3014 33.7189 18.9334C33.087 19.5653 32.3196 19.8813 31.4168 19.8813H24.8085L17.3335 30.7146H13.0002ZM34.6668 50.2146L27.1918 39.3813H20.5835C19.6807 39.3813 18.9134 39.0653 18.2814 38.4334C17.6495 37.8014 17.3335 37.0341 17.3335 36.1313C17.3335 35.2285 17.6495 34.4612 18.2814 33.8292C18.9134 33.1973 19.6807 32.8813 20.5835 32.8813H27.1918L34.6668 22.048H39.0002L34.8293 32.8813H41.1668L44.0377 28.548H47.6668L45.5002 36.1313L47.6668 43.7146H44.0377L41.1668 39.3813H34.8293L39.0002 50.2146H34.6668Z" fill="white"/>
</g>
</svg>
