<svg width="52" height="53" viewBox="0 0 52 53" fill="none" xmlns="http://www.w3.org/2000/svg">
<mask id="mask0_12665_13412" style="mask-type:alpha" maskUnits="userSpaceOnUse" x="0" y="0" width="52" height="53">
<rect y="0.381348" width="52" height="52" fill="white"/>
</mask>
<g mask="url(#mask0_12665_13412)">
<path d="M19.4998 48.048V19.3939C16.2137 18.5272 13.5866 16.7126 11.6186 13.9501C9.65053 11.1876 8.6665 8.10917 8.6665 4.71472H12.9998C12.9998 7.71194 13.9658 10.2668 15.8978 12.3793C17.8297 14.4918 20.2943 15.5481 23.2915 15.5481H28.7082C29.7915 15.5481 30.8026 15.7467 31.7415 16.1439C32.6804 16.5411 33.529 17.1189 34.2873 17.8772L44.0915 27.6814L41.0582 30.7147L32.4998 22.1564V48.048H28.1665V35.0481H23.8332V48.048H19.4998ZM25.9998 13.3814C24.8082 13.3814 23.788 12.9571 22.9394 12.1085C22.0908 11.2599 21.6665 10.2397 21.6665 9.04805C21.6665 7.85639 22.0908 6.83625 22.9394 5.98764C23.788 5.13903 24.8082 4.71472 25.9998 4.71472C27.1915 4.71472 28.2116 5.13903 29.0603 5.98764C29.9089 6.83625 30.3332 7.85639 30.3332 9.04805C30.3332 10.2397 29.9089 11.2599 29.0603 12.1085C28.2116 12.9571 27.1915 13.3814 25.9998 13.3814Z" fill="white"/>
</g>
</svg>
